<svg width="11" height="19" viewBox="0 0 11 19" fill="none" xmlns="http://www.w3.org/2000/svg">
<path d="M2.29471 9.49999L10.173 17.3764C10.3514 17.5548 10.4516 17.7967 10.4516 18.0489C10.4516 18.3012 10.3514 18.5431 10.173 18.7214C9.99464 18.8998 9.75273 19 9.50049 19C9.24825 19 9.00634 18.8998 8.82798 18.7214L0.279063 10.1725C0.190604 10.0843 0.120421 9.97945 0.0725353 9.86405C0.0246491 9.74865 0 9.62494 0 9.49999C0 9.37505 0.0246491 9.25134 0.0725353 9.13594C0.120421 9.02054 0.190604 8.91571 0.279063 8.82748L8.82798 0.278564C9.00634 0.100202 9.24825 0 9.50049 0C9.75273 0 9.99464 0.100202 10.173 0.278564C10.3514 0.456926 10.4516 0.698837 10.4516 0.951079C10.4516 1.20332 10.3514 1.44523 10.173 1.62359L2.29471 9.49999Z" fill="#14E685"/>
</svg>
