<svg width="30" height="31" viewBox="0 0 30 31" fill="none" xmlns="http://www.w3.org/2000/svg">
<g clip-path="url(#clip0_2_400)">
<path fill-rule="evenodd" clip-rule="evenodd" d="M21.1247 9.29998C21.1247 5.88068 18.3778 3.09998 15 3.09998C11.6223 3.09998 8.87533 5.88068 8.87533 9.29998C8.87533 12.7193 11.6223 15.5 15 15.5C18.3778 15.5 21.1247 12.7193 21.1247 9.29998ZM26.9187 31H24.1871C23.3419 31 22.6559 30.3056 22.6559 29.45C22.6559 28.5944 23.3419 27.9 24.1871 27.9H24.8439C25.9035 27.9 26.6859 26.8196 26.2848 25.8261C24.4305 21.2318 20.0759 18.6 15 18.6C9.92419 18.6 5.56952 21.2318 3.71528 25.8261C3.31411 26.8196 4.09656 27.9 5.15613 27.9H5.81298C6.65819 27.9 7.34415 28.5944 7.34415 29.45C7.34415 30.3056 6.65819 31 5.81298 31H3.08137C1.1674 31 -0.339273 29.2283 0.0664875 27.3358C1.18118 22.1293 4.66156 18.2868 9.24589 16.5431C7.15431 14.8396 5.81298 12.2295 5.81298 9.29998C5.81298 3.79593 10.5351 -0.590586 16.1009 0.0650641C20.1341 0.539364 23.475 3.79274 24.0799 7.85839C24.6005 11.363 23.1841 14.5637 20.7542 16.5431C25.3385 18.2868 28.8189 22.1293 29.9336 27.3358C30.3393 29.2283 28.8326 31 26.9187 31ZM19.5935 29.45C19.5935 30.3056 18.9076 31 18.0624 31H11.9377C11.0925 31 10.4065 30.3056 10.4065 29.45C10.4065 28.5944 11.0925 27.9 11.9377 27.9H18.0624C18.9076 27.9 19.5935 28.5944 19.5935 29.45Z" fill="#14E685"/>
</g>
<defs>
<clipPath id="clip0_2_400">
<rect width="30" height="31" fill="white"/>
</clipPath>
</defs>
</svg>
