<svg width="25" height="30" viewBox="0 0 25 30" fill="none" xmlns="http://www.w3.org/2000/svg">
<path d="M0.0125677 14.9206C-0.0125651 14.9602 -2.63099e-06 14.9867 0.0502552 14.9867L3.79225 15C3.82994 15 3.89276 14.9602 3.9179 14.9206L4.1315 14.5764C4.15662 14.5367 4.14406 14.497 4.0938 14.497H0.414638C0.36438 14.497 0.301552 14.5235 0.276427 14.5632L0.0125677 14.9206Z" fill="#00ACD7"/>
<path fill-rule="evenodd" clip-rule="evenodd" d="M12.2553 12.83C11.9608 12.9124 11.6623 12.9959 11.3166 13.0898C11.1478 13.1377 11.1094 13.1485 10.9523 12.9575C10.7638 12.7325 10.6256 12.587 10.3617 12.4545C9.57014 12.0442 8.80366 12.1634 8.08749 12.6531C7.23311 13.2355 6.79335 14.0958 6.80592 15.1679C6.81842 16.2268 7.50952 17.1004 8.50217 17.2459C9.35655 17.3651 10.0727 17.0474 10.6381 16.3724C10.7512 16.2269 10.8518 16.0679 10.9774 15.8827H8.55241C8.2885 15.8827 8.22569 15.7106 8.31366 15.4855C8.47702 15.0752 8.77858 14.387 8.95444 14.0429C8.99217 13.9634 9.08014 13.8311 9.26858 13.8311H13.3119C13.4936 13.2248 13.7883 12.652 14.1814 12.11C15.0987 10.8393 16.2044 10.1775 17.6995 9.89961C18.9812 9.66133 20.1873 9.79367 21.2805 10.5746C22.2731 11.2894 22.8887 12.2555 23.0521 13.5262C23.2657 15.313 22.7757 16.7691 21.6072 18.0132C20.7779 18.9 19.7601 19.4559 18.5916 19.7074C18.3687 19.7509 18.1458 19.7715 17.9265 19.7918C17.812 19.8024 17.6985 19.8129 17.5865 19.8266C16.443 19.8001 15.4002 19.4559 14.5206 18.6618C13.9021 18.0985 13.4761 17.4063 13.2643 16.6005C13.1173 16.9132 12.9416 17.2126 12.7365 17.4974C11.8318 18.7548 10.6507 19.5358 9.15553 19.7476C7.92413 19.9196 6.78077 19.6681 5.77558 18.874C4.84579 18.1327 4.31807 17.1533 4.17986 15.9356C4.01652 14.4929 4.41859 13.1958 5.24786 12.0575C6.13999 10.8266 7.32108 10.0456 8.766 9.76765C9.9471 9.54265 11.0779 9.68828 12.0957 10.4162C12.7615 10.8795 13.239 11.5148 13.5532 12.2825C13.6286 12.4016 13.5783 12.4678 13.4275 12.5075C12.9872 12.6253 12.6245 12.7268 12.2553 12.83ZM20.5681 14.3377C20.5706 14.3821 20.5732 14.429 20.5769 14.4792C20.514 15.6175 19.9737 16.4646 18.9812 17.0073C18.3152 17.3646 17.6241 17.4044 16.9331 17.0867C16.0284 16.6631 15.5509 15.6175 15.7771 14.5851C16.0536 13.3409 16.8074 12.56 17.9759 12.282C19.1696 11.9909 20.313 12.732 20.5392 14.0424C20.5569 14.1362 20.5622 14.2298 20.5681 14.3377Z" fill="#00ACD7"/>
<path d="M0.0125648 20.2567C-0.0125648 20.2964 5.82077e-09 20.3229 0.0502591 20.3229L5.18694 20.3097C5.2372 20.3097 5.28745 20.2832 5.30002 20.2302L5.40054 19.9126C5.4131 19.8729 5.38797 19.8332 5.33771 19.8332H0.414637C0.364378 19.8332 0.301554 19.8596 0.276424 19.8994L0.0125648 20.2567Z" fill="#00ACD7"/>
<path d="M5.41631 20.2369C5.39118 20.2766 5.40374 20.3163 5.45401 20.3163L7.38667 20.3295C7.42436 20.3295 7.47463 20.2898 7.47463 20.2369L7.49975 19.9192C7.49975 19.8663 7.47463 19.8266 7.42436 19.8266H5.71787C5.6676 19.8266 5.61735 19.8663 5.59222 19.9059L5.41631 20.2369Z" fill="#00ACD7"/>
</svg>
